<svg xmlns="http://www.w3.org/2000/svg" version="1.1" xmlns:xlink="http://www.w3.org/1999/xlink" viewBox="0 0 200 200"><rect width="200" height="200" fill="url('#gradient')"></rect><defs><linearGradient id="gradient" gradientTransform="rotate(45 0.5 0.5)"><stop offset="0%" stop-color="#283855"></stop><stop offset="100%" stop-color="#739bab"></stop></linearGradient></defs><g><g fill="#dde5dc" transform="matrix(0.9474171164225135,0,0,0.9474171164225135,10.027713370796532,104.88056540728167)" stroke="#dbd4c9" stroke-width="0.6"><path d="M9.98 0L9.15-2.66L4.45-2.66L3.63 0L-0.03 0L5.19-14.22L8.41-14.22L13.66 0L9.98 0ZM6.80-10.23L5.27-5.30L8.33-5.30L6.80-10.23ZM18.02-15L18.02 0L14.72 0L14.72-15L18.02-15ZM20.59-13.19L23.88-13.19L23.88-10.57L25.62-10.57L25.62-8.28L23.88-8.28L23.88-3.45Q23.88-2.85 24.09-2.62Q24.31-2.38 24.94-2.38L24.94-2.38Q25.43-2.38 25.76-2.44L25.76-2.44L25.76-0.09Q24.87 0.20 23.91 0.20L23.91 0.20Q22.21 0.20 21.40-0.61Q20.59-1.41 20.59-3.04L20.59-3.04L20.59-8.28L19.24-8.28L19.24-10.57L20.59-10.57L20.59-13.19ZM30.50-10.57L30.50 0L27.19 0L27.19-10.57L30.50-10.57ZM32.55-10.57L35.63-10.57L35.74-9.33Q36.84-10.76 38.76-10.76L38.76-10.76Q40.41-10.76 41.23-9.78Q42.04-8.79 42.07-6.81L42.07-6.81L42.07 0L38.77 0L38.77-6.67Q38.77-7.47 38.45-7.85Q38.13-8.22 37.28-8.22L37.28-8.22Q36.31-8.22 35.84-7.46L35.84-7.46L35.84 0L32.55 0L32.55-10.57ZM44.43-13.19L47.72-13.19L47.72-10.57L49.46-10.57L49.46-8.28L47.72-8.28L47.72-3.45Q47.72-2.85 47.94-2.62Q48.15-2.38 48.79-2.38L48.79-2.38Q49.28-2.38 49.61-2.44L49.61-2.44L49.61-0.09Q48.72 0.20 47.75 0.20L47.75 0.20Q46.05 0.20 45.24-0.61Q44.43-1.41 44.43-3.04L44.43-3.04L44.43-8.28L43.09-8.28L43.09-10.57L44.43-10.57L44.43-13.19ZM60 0L56.71 0Q56.53-0.32 56.40-0.95L56.40-0.95Q55.49 0.20 53.86 0.20L53.86 0.20Q52.36 0.20 51.32-0.71Q50.27-1.61 50.27-2.98L50.27-2.98Q50.27-4.70 51.54-5.58Q52.81-6.46 55.23-6.46L55.23-6.46L56.25-6.46L56.25-7.01Q56.25-8.47 54.99-8.47L54.99-8.47Q53.82-8.47 53.82-7.31L53.82-7.31L50.53-7.31Q50.53-8.85 51.83-9.80Q53.13-10.76 55.16-10.76Q57.18-10.76 58.35-9.78Q59.52-8.79 59.55-7.07L59.55-7.07L59.55-2.39Q59.57-0.94 60-0.17L60-0.17L60 0ZM54.65-2.15L54.65-2.15Q55.26-2.15 55.67-2.41Q56.07-2.68 56.25-3.01L56.25-3.01L56.25-4.70L55.29-4.70Q53.57-4.70 53.57-3.15L53.57-3.15Q53.57-2.71 53.88-2.43Q54.18-2.15 54.65-2.15ZM66.90-2.97L66.90-2.97Q66.90-3.39 66.46-3.64Q66.03-3.90 64.79-4.17Q63.56-4.44 62.76-4.89Q61.96-5.33 61.54-5.97Q61.12-6.60 61.12-7.42L61.12-7.42Q61.12-8.88 62.32-9.82Q63.53-10.76 65.47-10.76L65.47-10.76Q67.56-10.76 68.83-9.81Q70.10-8.87 70.10-7.32L70.10-7.32L66.80-7.32Q66.80-8.59 65.46-8.59L65.46-8.59Q64.94-8.59 64.59-8.31Q64.24-8.02 64.24-7.59L64.24-7.59Q64.24-7.15 64.67-6.88Q65.10-6.60 66.04-6.43Q66.98-6.25 67.70-6.01L67.70-6.01Q70.08-5.19 70.08-3.07L70.08-3.07Q70.08-1.62 68.79-0.71Q67.51 0.20 65.47 0.20L65.47 0.20Q64.11 0.20 63.05-0.29Q61.98-0.78 61.39-1.62Q60.79-2.46 60.79-3.39L60.79-3.39L63.87-3.39Q63.89-2.66 64.36-2.32Q64.82-1.98 65.56-1.98L65.56-1.98Q66.23-1.98 66.57-2.26Q66.90-2.53 66.90-2.97ZM64.19-0.01L66.69-0.01L66.59 0.59Q68.06 0.86 68.06 2.28L68.06 2.28Q68.06 3.41 67.09 4.05Q66.12 4.70 64.40 4.70L64.40 4.70L64.34 2.88Q65.20 2.88 65.20 2.13L65.20 2.13Q65.20 1.76 64.89 1.61Q64.58 1.46 63.89 1.42L63.89 1.42L64.19-0.01ZM85.65 0L84.82-2.66L80.13-2.66L79.31 0L75.64 0L80.86-14.22L84.08-14.22L89.34 0L85.65 0ZM82.47-10.23L80.95-5.30L84.00-5.30L82.47-10.23ZM89.80-5.36L89.80-5.36Q89.80-7.87 90.89-9.32Q91.97-10.76 93.92-10.76L93.92-10.76Q95.33-10.76 96.30-9.65L96.30-9.65L96.30-15L99.60-15L99.60 0L96.64 0L96.47-1.13Q95.46 0.20 93.90 0.20L93.90 0.20Q92.01 0.20 90.91-1.25Q89.80-2.70 89.80-5.36ZM93.11-5.76L93.10-5.16Q93.10-2.34 94.74-2.34L94.74-2.34Q95.83-2.34 96.30-3.26L96.30-3.26L96.30-7.29Q95.85-8.22 94.76-8.22L94.76-8.22Q93.23-8.22 93.11-5.76L93.11-5.76ZM110.71 0L107.42 0Q107.25-0.32 107.11-0.95L107.11-0.95Q106.20 0.20 104.57 0.20L104.57 0.20Q103.08 0.20 102.03-0.71Q100.99-1.61 100.99-2.98L100.99-2.98Q100.99-4.70 102.26-5.58Q103.53-6.46 105.95-6.46L105.95-6.46L106.96-6.46L106.96-7.01Q106.96-8.47 105.70-8.47L105.70-8.47Q104.53-8.47 104.53-7.31L104.53-7.31L101.24-7.31Q101.24-8.85 102.54-9.80Q103.85-10.76 105.87-10.76Q107.89-10.76 109.06-9.78Q110.23-8.79 110.26-7.07L110.26-7.07L110.26-2.39Q110.28-0.94 110.71-0.17L110.71-0.17L110.71 0ZM105.36-2.15L105.36-2.15Q105.98-2.15 106.38-2.41Q106.79-2.68 106.96-3.01L106.96-3.01L106.96-4.70L106.01-4.70Q104.29-4.70 104.29-3.15L104.29-3.15Q104.29-2.71 104.59-2.43Q104.89-2.15 105.36-2.15ZM115.56-15L115.56 0L112.26 0L112.26-15L115.56-15ZM122.70 0.20L122.70 0.20Q120.26 0.20 118.76-1.25Q117.26-2.71 117.26-5.03L117.26-5.03L117.26-5.30Q117.26-6.92 117.86-8.16Q118.46-9.40 119.61-10.08Q120.76-10.76 122.34-10.76L122.34-10.76Q124.57-10.76 125.86-9.38Q127.15-8.00 127.15-5.53L127.15-5.53L127.15-4.25L120.61-4.25Q120.78-3.36 121.38-2.85Q121.97-2.34 122.92-2.34L122.92-2.34Q124.48-2.34 125.36-3.44L125.36-3.44L126.87-1.66Q126.25-0.81 125.12-0.31Q123.99 0.20 122.70 0.20ZM122.32-8.22L122.32-8.22Q120.88-8.22 120.61-6.31L120.61-6.31L123.93-6.31L123.93-6.56Q123.95-7.35 123.53-7.79Q123.11-8.22 122.32-8.22ZM129.01-13.19L132.30-13.19L132.30-10.57L134.04-10.57L134.04-8.28L132.30-8.28L132.30-3.45Q132.30-2.85 132.52-2.62Q132.73-2.38 133.37-2.38L133.37-2.38Q133.86-2.38 134.19-2.44L134.19-2.44L134.19-0.09Q133.30 0.20 132.33 0.20L132.33 0.20Q130.63 0.20 129.82-0.61Q129.01-1.41 129.01-3.04L129.01-3.04L129.01-8.28L127.67-8.28L127.67-10.57L129.01-10.57L129.01-13.19ZM147.80-3.78L147.80-3.78Q147.80-4.53 147.27-4.95Q146.74-5.37 145.40-5.82Q144.06-6.27 143.21-6.69L143.21-6.69Q140.45-8.05 140.45-10.42L140.45-10.42Q140.45-11.60 141.14-12.50Q141.83-13.41 143.09-13.91Q144.35-14.41 145.92-14.41L145.92-14.41Q147.45-14.41 148.67-13.87Q149.88-13.32 150.56-12.31Q151.23-11.30 151.23-10L151.23-10L147.81-10Q147.81-10.87 147.28-11.35Q146.75-11.83 145.84-11.83L145.84-11.83Q144.92-11.83 144.39-11.42Q143.86-11.02 143.86-10.39L143.86-10.39Q143.86-9.84 144.44-9.40Q145.03-8.96 146.50-8.48Q147.98-8.01 148.93-7.46L148.93-7.46Q151.23-6.13 151.23-3.80L151.23-3.80Q151.23-1.93 149.82-0.87Q148.42 0.20 145.97 0.20L145.97 0.20Q144.24 0.20 142.84-0.42Q141.44-1.04 140.73-2.12Q140.02-3.20 140.02-4.61L140.02-4.61L143.46-4.61Q143.46-3.47 144.05-2.92Q144.64-2.38 145.97-2.38L145.97-2.38Q146.82-2.38 147.31-2.75Q147.80-3.12 147.80-3.78ZM156.31-10.57L156.31 0L153.01 0L153.01-10.57L156.31-10.57ZM152.81-13.29L152.81-13.29Q152.81-13.99 153.32-14.44Q153.83-14.89 154.64-14.89Q155.45-14.89 155.96-14.44Q156.46-13.99 156.46-13.29Q156.46-12.59 155.96-12.14Q155.45-11.69 154.64-11.69Q153.83-11.69 153.32-12.14Q152.81-12.59 152.81-13.29ZM158.88-13.19L162.17-13.19L162.17-10.57L163.91-10.57L163.91-8.28L162.17-8.28L162.17-3.45Q162.17-2.85 162.38-2.62Q162.60-2.38 163.23-2.38L163.23-2.38Q163.72-2.38 164.05-2.44L164.05-2.44L164.05-0.09Q163.16 0.20 162.20 0.20L162.20 0.20Q160.50 0.20 159.69-0.61Q158.88-1.41 158.88-3.04L158.88-3.04L158.88-8.28L157.53-8.28L157.53-10.57L158.88-10.57L158.88-13.19ZM170.31 0.20L170.31 0.20Q167.88 0.20 166.38-1.25Q164.87-2.71 164.87-5.03L164.87-5.03L164.87-5.30Q164.87-6.92 165.47-8.16Q166.07-9.40 167.23-10.08Q168.38-10.76 169.96-10.76L169.96-10.76Q172.19-10.76 173.48-9.38Q174.77-8.00 174.77-5.53L174.77-5.53L174.77-4.25L168.22-4.25Q168.40-3.36 168.99-2.85Q169.59-2.34 170.54-2.34L170.54-2.34Q172.10-2.34 172.98-3.44L172.98-3.44L174.48-1.66Q173.87-0.81 172.74-0.31Q171.61 0.20 170.31 0.20ZM169.94-8.22L169.94-8.22Q168.50-8.22 168.22-6.31L168.22-6.31L171.54-6.31L171.54-6.56Q171.56-7.35 171.14-7.79Q170.72-8.22 169.94-8.22ZM181.62-2.97L181.62-2.97Q181.62-3.39 181.18-3.64Q180.74-3.90 179.51-4.17Q178.28-4.44 177.48-4.89Q176.68-5.33 176.26-5.97Q175.84-6.60 175.84-7.42L175.84-7.42Q175.84-8.88 177.04-9.82Q178.24-10.76 180.19-10.76L180.19-10.76Q182.28-10.76 183.54-9.81Q184.81-8.87 184.81-7.32L184.81-7.32L181.51-7.32Q181.51-8.59 180.18-8.59L180.18-8.59Q179.66-8.59 179.31-8.31Q178.96-8.02 178.96-7.59L178.96-7.59Q178.96-7.15 179.38-6.88Q179.81-6.60 180.76-6.43Q181.70-6.25 182.41-6.01L182.41-6.01Q184.79-5.19 184.79-3.07L184.79-3.07Q184.79-1.62 183.51-0.71Q182.23 0.20 180.19 0.20L180.19 0.20Q178.83 0.20 177.76-0.29Q176.70-0.78 176.10-1.62Q175.51-2.46 175.51-3.39L175.51-3.39L178.58-3.39Q178.60-2.66 179.07-2.32Q179.54-1.98 180.27-1.98L180.27-1.98Q180.95-1.98 181.28-2.26Q181.62-2.53 181.62-2.97ZM189.80-10.57L189.80 0L186.50 0L186.50-10.57L189.80-10.57ZM186.31-13.29L186.31-13.29Q186.31-13.99 186.82-14.44Q187.32-14.89 188.13-14.89Q188.95-14.89 189.45-14.44Q189.96-13.99 189.96-13.29Q189.96-12.59 189.45-12.14Q188.95-11.69 188.13-11.69Q187.32-11.69 186.82-12.14Q186.31-12.59 186.31-13.29Z"></path></g></g></svg>